<?xml version="1.0" standalone="no"?>
<!DOCTYPE svg PUBLIC "-//W3C//DTD SVG 20010904//EN"
 "http://www.w3.org/TR/2001/REC-SVG-20010904/DTD/svg10.dtd">
<svg version="1.0" xmlns="http://www.w3.org/2000/svg"
 width="290.000000pt" height="290.000000pt" viewBox="0 0 290.000000 290.000000"
 preserveAspectRatio="xMidYMid meet">

<g transform="translate(0.000000,290.000000) scale(0.100000,-0.100000)"
fill="#000000" stroke="none">
<path d="M897 2556 c-73 -68 -162 -148 -198 -178 -105 -85 -256 -218 -357
-315 -80 -77 -93 -94 -90 -118 2 -15 10 -32 19 -38 31 -20 73 5 173 101 103
98 259 234 278 241 20 7 23 -18 18 -155 -11 -265 -6 -549 9 -567 20 -25 58
-21 77 8 20 30 23 80 28 505 l4 324 105 101 c107 101 127 127 127 164 0 23
-25 51 -46 51 -8 0 -74 -56 -147 -124z"/>
<path d="M1955 2670 c-245 -14 -275 -21 -275 -71 0 -52 18 -54 321 -37 242 14
274 17 286 34 17 23 16 35 -1 59 -16 23 -109 27 -331 15z"/>
<path d="M1957 2460 l-399 -5 -19 -23 c-23 -29 -12 -58 27 -72 15 -6 189 -10
405 -10 313 0 381 -2 385 -14 5 -14 -32 -155 -58 -216 -15 -36 -167 -229 -242
-308 -54 -57 -82 -71 -166 -81 -39 -5 -78 -15 -86 -22 -22 -18 -13 -61 16 -76
56 -28 196 -1 265 51 54 42 273 315 304 381 38 78 91 266 91 320 0 56 -31 86
-86 83 -21 -1 -218 -5 -437 -8z"/>
<path d="M1919 1231 l-24 -19 -3 -459 c-3 -448 -2 -460 17 -477 25 -23 60 -15
81 16 12 19 15 67 15 265 0 162 4 246 11 253 8 8 44 -11 132 -69 147 -97 173
-111 210 -111 36 0 66 31 57 59 -3 11 -81 70 -181 137 -239 160 -224 144 -224
252 0 98 -12 147 -40 162 -24 13 -24 13 -51 -9z"/>
<path d="M1130 1159 c-59 -10 -198 -18 -360 -23 -146 -4 -298 -11 -339 -15
-82 -10 -126 -34 -126 -71 0 -41 22 -45 177 -32 207 17 580 20 585 5 2 -6 -40
-49 -93 -95 -54 -46 -143 -126 -199 -179 -55 -52 -134 -118 -175 -146 -98 -66
-160 -122 -214 -192 -48 -62 -59 -99 -37 -125 30 -36 73 -13 134 70 25 35 74
83 112 110 37 27 100 73 139 102 39 28 76 52 81 52 12 0 102 -145 160 -258 56
-109 127 -155 155 -102 14 26 6 51 -35 115 -18 27 -58 96 -90 153 -32 57 -71
117 -88 133 -38 39 -33 50 60 127 40 33 126 111 192 173 128 120 148 153 116
189 -23 26 -48 27 -155 9z"/>
</g>
</svg>
